<svg xmlns="http://www.w3.org/2000/svg" version="1.1" xmlns:xlink="http://www.w3.org/1999/xlink" xmlns:svgjs="http://svgjs.dev/svgjs" width="1500" height="295" viewBox="0 0 1500 295"><g transform="matrix(1,0,0,1,-0.9090909090909918,-0.7441907607912412)"><svg viewBox="0 0 396 78" data-background-color="#ffffff" preserveAspectRatio="xMidYMid meet" height="295" width="1500" xmlns="http://www.w3.org/2000/svg" xmlns:xlink="http://www.w3.org/1999/xlink"><g id="tight-bounds" transform="matrix(1,0,0,1,0.2400000000000091,0.1967690825142938)"><svg viewBox="0 0 395.52 77.60646183497141" height="77.60646183497141" width="395.52"><g><svg viewBox="0 0 395.52 77.60646183497141" height="77.60646183497141" width="395.52"><g><svg viewBox="0 0 395.52 77.60646183497141" height="77.60646183497141" width="395.52"><g><svg viewBox="0 0 395.52 77.60646183497141" height="77.60646183497141" width="395.52"><g><svg viewBox="0 0 395.52 77.60646183497141" height="77.60646183497141" width="395.52"><g id="textblocktransform"><svg viewBox="0 0 395.52 77.60646183497141" height="77.60646183497141" width="395.52" id="textblock"><g><svg viewBox="0 0 395.52 41.81211428571428" height="41.81211428571428" width="395.52"><g transform="matrix(1,0,0,1,0,0)"><svg width="395.52" viewBox="1.95 -31.98 308.27000000000004 32.52" height="41.81211428571428" data-palette-color="#ce0056"><path d="M18.21-5.18L18.6 0 25.59 0Q25.59-1.07 24.85-1.17L24.85-1.17Q24.66-1.22 24.37-1.22L24.37-1.22 21.92-1.22 21.83-31.74 13.53-31.74 13.53-30.52 18.16-30.52 18.16-18.6Q15.77-21.24 11.72-21.24L11.72-21.24Q6.35-21.24 3.61-16.46L3.61-16.46Q1.95-13.53 1.95-9.86L1.95-9.86Q1.95-3.81 5.76-1.03L5.76-1.03Q7.91 0.49 10.5 0.49L10.5 0.49Q15.82 0.39 18.21-5.18L18.21-5.18ZM6.1-10.45L6.1-10.45Q6.1-17.33 9.81-19.38L9.81-19.38Q10.99-20.02 12.4-20.02L12.4-20.02Q15.97-20.02 17.48-16.21L17.48-16.21Q18.31-14.16 18.31-11.38L18.31-11.38Q18.31-5.52 15.38-2.88L15.38-2.88Q13.82-1.46 11.82-1.46L11.82-1.46Q7.81-1.46 6.59-6.35L6.59-6.35Q6.1-8.15 6.1-10.45ZM32.86-10.4L32.86-10.4Q32.86-17.97 37.01-19.63L37.01-19.63Q38.08-20.02 39.26-20.02L39.26-20.02Q44.68-20.02 45.55-13.18L45.55-13.18Q45.7-12.01 45.7-10.6L45.7-10.6Q45.7-2.39 41.21-0.98L41.21-0.98Q40.33-0.73 39.4-0.73L39.4-0.73Q34.47-0.73 33.2-6.59L33.2-6.59Q32.86-8.3 32.86-10.4ZM39.4-21.24L39.4-21.24Q34.71-21.24 31.59-18.02L31.59-18.02Q28.71-15.04 28.71-10.6L28.71-10.6Q28.71-4.44 33.2-1.37L33.2-1.37Q35.94 0.49 39.26 0.49L39.26 0.49Q43.94 0.49 47.02-2.83L47.02-2.83Q49.85-5.86 49.85-10.4L49.85-10.4Q49.85-16.55 45.31-19.53L45.31-19.53Q42.62-21.24 39.4-21.24ZM52.78-20.75L52.78-19.53 56.2-19.53 56.2-5.76Q56.54 0.34 61.81 0.54L61.81 0.54Q66.3 0.54 67.43-4.98L67.43-4.98Q67.43-5.03 67.43-5.08L67.43-5.08 66.11-5.32Q64.89-1.27 62.54-0.93L62.54-0.93Q59.91-1.03 59.86-4.69L59.86-4.69 59.86-19.53 67.43-19.53 67.43-20.75 59.86-20.75 59.86-26.42 56.2-25.39 56.2-20.75 52.78-20.75ZM79.92-1.22L79.92-1.22 76.51-1.22 76.51-19.53 82.12-19.53 82.12-20.75 76.51-20.75 76.51-21.04Q76.51-29.39 79-30.52L79-30.52Q79.53-30.76 80.17-30.76L80.17-30.76Q81.68-30.76 82.71-28.96L82.71-28.96Q83.59-27.39 83.98-27.1L83.98-27.1Q84.37-26.81 84.86-26.81L84.86-26.81Q86.47-26.81 86.76-28.17L86.76-28.17Q86.81-28.42 86.81-28.61L86.81-28.61Q86.81-30.42 84.37-31.45L84.37-31.45Q82.95-31.98 81.19-31.98L81.19-31.98Q76.6-31.98 74.36-28.17L74.36-28.17Q72.84-25.54 72.84-21.53L72.84-21.53 72.84-20.75 69.43-20.75 69.43-19.53 72.84-19.53 72.84-4.15Q72.84-1.9 71.57-1.46L71.57-1.46Q70.84-1.22 69.18-1.22L69.18-1.22 69.18 0 81.14 0Q81.14-1.07 80.41-1.17L80.41-1.17Q80.22-1.22 79.92-1.22ZM93.98-1.22L93.98-1.22 91.54-1.22 91.54-20.75 83.97-20.75 83.97-19.53 87.88-19.53 87.88-4.15Q87.88-1.9 86.37-1.42L86.37-1.42Q85.63-1.22 83.97-1.22L83.97-1.22 83.97 0 95.2 0Q95.2-1.07 94.47-1.17L94.47-1.17Q94.23-1.22 93.98-1.22ZM92.13-27.88L92.13-27.88Q92.13-29.59 90.62-30.32L90.62-30.32Q90.03-30.57 89.49-30.57L89.49-30.57Q87.78-30.57 87.05-29L87.05-29Q86.81-28.47 86.81-27.88L86.81-27.88Q86.81-26.07 88.42-25.39L88.42-25.39Q88.95-25.2 89.49-25.2L89.49-25.2Q91.2-25.2 91.88-26.76L91.88-26.76Q92.13-27.29 92.13-27.88ZM108.24-1.22L108.24-1.22 105.6-1.22 105.6-31.74 98.28-31.74 98.28-30.52 101.94-30.52 101.94-4.15Q101.94-1.9 100.67-1.46L100.67-1.46Q99.94-1.22 98.28-1.22L98.28-1.22 98.28 0 109.46 0Q109.46-1.07 108.73-1.17L108.73-1.17Q108.53-1.22 108.24-1.22ZM122.93-20.02L122.93-20.02Q126.35-20.02 127.48-17.14L127.48-17.14Q127.87-16.21 127.87-15.14L127.87-15.14Q127.87-12.7 125.52-12.16L125.52-12.16Q124.3-11.91 122.06-11.96L122.06-11.96 116.88-12.11Q117.12-17.72 120.54-19.43L120.54-19.43Q121.66-20.02 122.93-20.02ZM131.43-4.69L131.43-4.69 130.21-5.13Q128.5-1.42 124.69-0.93L124.69-0.93Q124.2-0.88 123.76-0.88L123.76-0.88Q118.64-0.88 117.32-6.98L117.32-6.98Q116.93-8.69 116.88-10.74L116.88-10.74 122.74-10.64Q128.7-10.55 130.4-11.77L130.4-11.77Q131.72-12.74 131.72-14.55L131.72-14.55Q131.72-17.87 128.35-19.82L128.35-19.82Q125.96-21.24 122.84-21.24L122.84-21.24Q116.73-21.24 114.1-16.16L114.1-16.16Q112.73-13.53 112.73-10.21L112.73-10.21Q112.73-4.15 117.07-1.22L117.07-1.22Q119.66 0.49 122.98 0.49L122.98 0.49Q128.26 0.49 130.75-3.32L130.75-3.32Q131.14-4 131.43-4.69ZM142.71-0.83L142.71-0.83Q146.08-0.83 147.25-2.88L147.25-2.88Q147.69-3.61 147.69-4.49L147.69-4.49Q147.69-6.54 144.71-8.01L144.71-8.01Q144.07-8.35 142.61-8.98L142.61-8.98Q138.61-10.64 137.29-12.11L137.29-12.11Q135.87-13.72 135.87-15.87L135.87-15.87Q135.87-19.24 139.58-20.61L139.58-20.61Q141.29-21.24 143.29-21.24L143.29-21.24Q146.52-21.24 148.86-19.87L148.86-19.87Q148.86-21.29 149.54-21.48L149.54-21.48Q149.84-21.53 150.18-21.53L150.18-21.53 150.18-15.43 148.91-15.43Q148.81-19.92 143.93-19.97L143.93-19.97Q140.27-19.97 139.39-17.82L139.39-17.82Q139.14-17.24 139.14-16.6L139.14-16.6Q139.14-14.5 142.17-13.04L142.17-13.04Q142.85-12.7 144.32-12.11L144.32-12.11Q148.27-10.5 149.59-9.03L149.59-9.03Q151.01-7.47 151.01-5.32L151.01-5.32Q151.01-1.37 146.81-0.05L146.81-0.05Q145.2 0.49 143.29 0.49L143.29 0.49Q139.78 0.44 137.19-1.27L137.19-1.27Q137.19 0 136.55 0.2L136.55 0.2Q136.26 0.24 135.87 0.24L135.87 0.24 135.87-7.18 137.24-7.18Q137.34-0.88 142.71-0.83ZM155.06-9.13L155.06-11.43 166.19-11.43 166.19-9.13 155.06-9.13ZM187.97-5.18L188.36 0 195.34 0Q195.34-1.07 194.61-1.17L194.61-1.17Q194.41-1.22 194.12-1.22L194.12-1.22 191.68-1.22 191.58-31.74 183.28-31.74 183.28-30.52 187.92-30.52 187.92-18.6Q185.52-21.24 181.47-21.24L181.47-21.24Q176.1-21.24 173.37-16.46L173.37-16.46Q171.71-13.53 171.71-9.86L171.71-9.86Q171.71-3.81 175.51-1.03L175.51-1.03Q177.66 0.49 180.25 0.49L180.25 0.49Q185.57 0.39 187.97-5.18L187.97-5.18ZM175.86-10.45L175.86-10.45Q175.86-17.33 179.57-19.38L179.57-19.38Q180.74-20.02 182.16-20.02L182.16-20.02Q185.72-20.02 187.23-16.21L187.23-16.21Q188.06-14.16 188.06-11.38L188.06-11.38Q188.06-5.52 185.13-2.88L185.13-2.88Q183.57-1.46 181.57-1.46L181.57-1.46Q177.57-1.46 176.34-6.35L176.34-6.35Q175.86-8.15 175.86-10.45ZM208.67-20.02L208.67-20.02Q212.08-20.02 213.21-17.14L213.21-17.14Q213.6-16.21 213.6-15.14L213.6-15.14Q213.6-12.7 211.25-12.16L211.25-12.16Q210.03-11.91 207.79-11.96L207.79-11.96 202.61-12.11Q202.86-17.72 206.27-19.43L206.27-19.43Q207.4-20.02 208.67-20.02ZM217.16-4.69L217.16-4.69 215.94-5.13Q214.23-1.42 210.42-0.93L210.42-0.93Q209.94-0.88 209.5-0.88L209.5-0.88Q204.37-0.88 203.05-6.98L203.05-6.98Q202.66-8.69 202.61-10.74L202.61-10.74 208.47-10.64Q214.43-10.55 216.14-11.77L216.14-11.77Q217.46-12.74 217.46-14.55L217.46-14.55Q217.46-17.87 214.09-19.82L214.09-19.82Q211.69-21.24 208.57-21.24L208.57-21.24Q202.47-21.24 199.83-16.16L199.83-16.16Q198.46-13.53 198.46-10.21L198.46-10.21Q198.46-4.15 202.81-1.22L202.81-1.22Q205.39 0.49 208.72 0.49L208.72 0.49Q213.99 0.49 216.48-3.32L216.48-3.32Q216.87-4 217.16-4.69ZM234.1 0.49L234.1 0.49Q238.4 0.49 241.33-2.73L241.33-2.73Q244.06-5.86 244.06-10.64L244.06-10.64Q244.06-16.02 241.13-19.04L241.13-19.04Q238.94-21.24 235.71-21.24L235.71-21.24Q230.39-21.24 228.15-16.46L228.15-16.46Q227.9-16.02 227.76-15.58L227.76-15.58 227.76-31.74 220.43-31.74 220.43-30.52 224.09-30.52 224.09-4.15Q224.09-1.9 222.82-1.46L222.82-1.46Q222.09-1.22 220.43-1.22L220.43-1.22 220.43 0 226.58 0 227.02-3.22Q229.12 0.15 233.37 0.44L233.37 0.44Q233.76 0.49 234.1 0.49ZM234.2-19.29L234.2-19.29Q238.2-19.29 239.43-14.4L239.43-14.4Q239.91-12.6 239.91-10.3L239.91-10.3Q239.91-3.42 236.2-1.37L236.2-1.37Q235.03-0.73 233.62-0.73L233.62-0.73Q229.95-0.73 228.44-4.64L228.44-4.64Q227.71-6.69 227.71-9.38L227.71-9.38Q227.71-15.28 230.64-17.92L230.64-17.92Q232.2-19.29 234.2-19.29ZM257.49-1.22L257.49-1.22 255.05-1.22 255.05-20.75 247.48-20.75 247.48-19.53 251.39-19.53 251.39-4.15Q251.39-1.9 249.87-1.42L249.87-1.42Q249.14-1.22 247.48-1.22L247.48-1.22 247.48 0 258.71 0Q258.71-1.07 257.98-1.17L257.98-1.17Q257.73-1.22 257.49-1.22ZM255.63-27.88L255.63-27.88Q255.63-29.59 254.12-30.32L254.12-30.32Q253.53-30.57 253-30.57L253-30.57Q251.29-30.57 250.56-29L250.56-29Q250.31-28.47 250.31-27.88L250.31-27.88Q250.31-26.07 251.92-25.39L251.92-25.39Q252.46-25.2 253-25.2L253-25.2Q254.71-25.2 255.39-26.76L255.39-26.76Q255.63-27.29 255.63-27.88ZM279.26 0.49L279.26 0.49Q283.02 0.49 283.41-4.05L283.41-4.05Q283.46-4.35 283.46-4.59L283.46-4.59 282.19-4.64Q281.85-1.07 280.29-1.03L280.29-1.03Q279.02-1.12 278.97-3.56L278.97-3.56 278.97-13.87Q278.97-20.85 271.99-21.24L271.99-21.24Q271.55-21.24 271.11-21.24L271.11-21.24Q265.64-21.24 263.79-18.7L263.79-18.7Q263.2-17.87 263.2-17.04L263.2-17.04Q263.2-15.53 264.62-15.28L264.62-15.28Q264.86-15.23 265.1-15.23L265.1-15.23Q266.23-15.23 266.76-16.65L266.76-16.65Q267.45-18.46 267.69-18.8L267.69-18.8Q268.62-20.02 270.57-20.02L270.57-20.02Q275.16-19.73 275.31-14.99L275.31-14.99 275.31-11.91Q263.83-11.91 262.17-7.13L262.17-7.13Q261.88-6.2 261.88-5.13L261.88-5.13Q261.88-1.42 265.15-0.05L265.15-0.05Q266.47 0.49 267.94 0.49L267.94 0.49Q271.5 0.49 273.94-1.95L273.94-1.95Q274.82-2.88 275.26-3.91L275.26-3.91Q275.85 0.44 279.26 0.49ZM269.55-1.46L269.55-1.46Q266.57-1.46 265.89-4.44L265.89-4.44Q265.74-5.13 265.74-5.96L265.74-5.96Q265.74-9.23 269.5-10.11L269.5-10.11Q271.5-10.55 275.31-10.6L275.31-10.6 275.31-6.69Q274.58-3.32 271.74-1.95L271.74-1.95Q270.62-1.46 269.55-1.46ZM294.69-1.22L294.69-1.22 292.49-1.22 292.49-11.77Q292.64-16.31 295.72-18.31L295.72-18.31Q297.04-19.14 298.4-19.14L298.4-19.14Q301.38-19.14 302.46-16.36L302.46-16.36Q302.89-15.23 302.89-13.82L302.89-13.82 302.89-4.15Q302.89-1.9 301.63-1.46L301.63-1.46Q300.89-1.22 299.23-1.22L299.23-1.22 299.23 0 310.22 0Q310.22-1.07 309.49-1.17L309.49-1.17Q309.29-1.22 309-1.22L309-1.22 306.56-1.22 306.56-13.33Q306.56-18.21 303.19-20.31L303.19-20.31Q301.63-21.24 299.82-21.24L299.82-21.24Q296.21-21.24 293.86-18.36L293.86-18.36Q292.98-17.24 292.45-15.87L292.45-15.87 292.25-20.75 285.17-20.75 285.17-19.53 288.83-19.53 288.83-4.15Q288.83-1.9 287.56-1.46L287.56-1.46Q286.83-1.22 285.17-1.22L285.17-1.22 285.17 0 295.91 0Q295.91-1.07 295.18-1.17L295.18-1.17Q294.98-1.22 294.69-1.22Z" opacity="1" transform="matrix(1,0,0,1,0,0)" fill="#ce0056" class="wordmark-text-0" data-fill-palette-color="primary" id="text-0"></path></svg></g></svg></g><g transform="matrix(1,0,0,1,111.55709865533721,51.68295097782857)"><svg viewBox="0 0 172.40580268932555 25.923510857142855" height="25.923510857142855" width="172.40580268932555"><g transform="matrix(1,0,0,1,0,0)"><svg width="172.40580268932555" viewBox="1.3499999999999999 -40.8 357.77 53.8" height="25.923510857142855" data-palette-color="#000000"><path d="M38.6-8.7L38.6-17.85Q38.6-24.8 34.15-24.8L34.15-24.8Q30.35-24.8 26.95-19.55L26.95-19.55 26.95-2.55 31-1.8Q31.2-1 31 0.2L31 0.2Q27.85 0.05 24.6 0.05L24.6 0.05Q22.3 0.05 18.1 0.15L18.1 0.15Q17.8-0.8 18.1-1.8L18.1-1.8 22.05-2.35Q22.25-5.1 22.25-8.7L22.25-8.7 22.25-17.85Q22.25-24.8 17.8-24.8L17.8-24.8Q15.55-24.8 13.85-23.43 12.15-22.05 10.35-19.15L10.35-19.15 10.35-2.55 14.4-1.8Q14.6-1 14.4 0.2L14.4 0.2Q11.25 0.05 8 0.05L8 0.05Q5.7 0.05 1.5 0.15L1.5 0.15Q1.2-0.8 1.5-1.8L1.5-1.8 5.45-2.35Q5.65-5.1 5.65-8.7L5.65-8.7 5.65-22.4Q5.65-23.4 5.5-24.25L5.5-24.25 1.55-24.75Q1.35-25.5 1.55-26.65L1.55-26.65Q4.9-26.9 10.1-27.7L10.1-27.7Q10.55-27.2 10.6-26.7L10.6-26.7Q10.35-25.4 10.35-22.25L10.35-22.25Q14.3-27.7 19.25-27.7L19.25-27.7Q21.85-27.7 24-26.38 26.15-25.05 26.75-22.3L26.75-22.3Q30.75-27.7 35.6-27.7L35.6-27.7Q38.65-27.7 40.98-25.9 43.3-24.1 43.3-20.35L43.3-20.35 43.3-2.55 47.35-1.8Q47.55-1 47.35 0.2L47.35 0.2Q44.2 0.05 40.95 0.05L40.95 0.05Q38.65 0.05 34.45 0.15L34.45 0.15Q34.15-0.8 34.45-1.8L34.45-1.8 38.4-2.35Q38.6-5.1 38.6-8.7L38.6-8.7ZM54.8-6.65L54.8-6.65Q54.8-4.05 55.75-2.98 56.7-1.9 58.75-1.9L58.75-1.9Q60.25-1.9 62.07-2.83 63.9-3.75 65.45-5.5L65.45-5.5 65.45-13.3Q60.3-13 57.55-11.48 54.8-9.95 54.8-6.65ZM65.45-15.1L65.45-15.1 65.45-17.65Q65.45-21.9 64.47-23.83 63.5-25.75 61.25-25.75L61.25-25.75Q58.95-25.75 57.55-24.28 56.15-22.8 55.65-19.25L55.65-19.25Q54.05-18.9 53.3-18.9L53.3-18.9Q51.35-18.9 51-20.3L51-20.3Q51-23.7 53.95-25.7 56.9-27.7 61.3-27.7L61.3-27.7Q66.15-27.7 68.17-25.73 70.2-23.75 70.2-18.65L70.2-18.65 70.2-4.55Q70.2-3.3 70.35-2.4L70.35-2.4 74.3-1.9Q74.5-1.15 74.3 0L74.3 0Q70.75 0.15 66.75 0.7L66.75 0.7Q66.35 0.3 66.25-0.3L66.25-0.3 66-3.75Q61.85 1 56.75 1L56.75 1Q53.6 1 51.82-0.8 50.05-2.6 50.05-5.65L50.05-5.65Q50.05-10.25 54.22-12.6 58.4-14.95 65.45-15.1ZM101.05-31.7L101.05-7.1Q101.05-3.75 101.2-2.4L101.2-2.4 105.15-1.9Q105.3-1.1 105.15 0L105.15 0Q101.5 0.15 97.55 0.7L97.55 0.7Q97.2 0.35 97.05-0.25L97.05-0.25 96.8-3.45Q95.05-1.4 92.45-0.18 89.84 1.05 87 1.05L87 1.05Q82.65 1.05 79.8-2.58 76.95-6.2 76.95-12.25L76.95-12.25Q76.95-19.25 80.67-23.48 84.4-27.7 89.59-27.7L89.59-27.7Q93.7-27.7 96.3-25.75L96.3-25.75 96.3-32.45Q96.3-35.75 96.15-37.35L96.15-37.35 92.2-37.85Q92-38.6 92.2-39.75L92.2-39.75Q95.65-40 100.8-40.8L100.8-40.8Q101.25-40.3 101.3-39.8L101.3-39.8Q101.05-38.5 101.05-31.7L101.05-31.7ZM89.2-25L89.2-25Q85.95-25 84-21.58 82.05-18.15 82.05-12.1L82.05-12.1Q82.05-7.15 83.87-4.55 85.7-1.95 88.7-1.95L88.7-1.95Q90.5-1.95 92.65-3.08 94.8-4.2 96.3-6.2L96.3-6.2 96.3-22.2Q93.84-25 89.2-25ZM129.04-14.1L129.04-14.1 113.34-14.1Q112.89-1.35 120.99-1.35L120.99-1.35Q124.44-1.35 128.04-4.4L128.04-4.4Q128.79-3.95 129.19-2.85L129.19-2.85Q125.74 1 120.44 1L120.44 1Q108.24 1 108.24-13.35L108.24-13.35Q108.24-20.15 111.84-23.93 115.44-27.7 120.24-27.7L120.24-27.7Q125.49-27.7 127.79-24.05 130.09-20.4 130.09-14.55L130.09-14.55Q129.59-14.15 129.04-14.1ZM120.14-25.7L120.14-25.7Q117.54-25.7 115.72-23 113.89-20.3 113.49-16.1L113.49-16.1 119.69-16.1Q123.39-16.1 124.99-16.55L124.99-16.55Q124.99-20.65 123.74-23.18 122.49-25.7 120.14-25.7ZM153.14-31.7L153.14-23.55Q157.29-27.7 162.19-27.7L162.19-27.7Q167.04-27.7 169.76-24.05 172.49-20.4 172.49-14.2L172.49-14.2Q172.49-7.15 168.69-3.08 164.89 1 159.24 1L159.24 1Q154.34 1 151.54-2.5L151.54-2.5 150.49 0.9Q149.54 1.05 148.89 0.9L148.89 0.9 148.39-4.6 148.39-37.35 144.29-37.85Q144.09-38.6 144.29-39.75L144.29-39.75Q147.74-40 152.89-40.8L152.89-40.8Q153.34-40.3 153.39-39.8L153.39-39.8Q153.14-38.5 153.14-31.7L153.14-31.7ZM160.34-1.75L160.34-1.75Q163.44-1.75 165.46-4.63 167.49-7.5 167.49-12.75L167.49-12.75Q167.49-13.8 167.44-14.35L167.44-14.35Q167.44-19.3 165.46-22 163.49-24.7 160.49-24.7L160.49-24.7Q158.74-24.7 156.69-23.58 154.64-22.45 153.14-20.5L153.14-20.5 153.14-5.2Q154.84-3.25 156.39-2.5 157.94-1.75 160.34-1.75ZM184.64 7.4L184.64 7.4 187.84-0.15 178.14-24.05 174.24-24.85Q173.99-25.85 174.24-26.85L174.24-26.85Q176.99-26.65 180.94-26.65L180.94-26.65Q184.49-26.65 187.69-26.8L187.69-26.8Q187.99-25.8 187.69-24.85L187.69-24.85 183.39-24.15 188.14-12.9Q189.14-10.45 190.24-6.05L190.24-6.05 190.34-6.05Q191.19-9.05 192.69-12.65L192.69-12.65 197.04-24.3 193.14-24.85Q192.94-25.65 193.14-26.85L193.14-26.85Q195.89-26.65 198.49-26.65L198.49-26.65Q200.69-26.65 203.94-26.8L203.94-26.8Q204.24-25.8 203.94-24.85L203.94-24.85 199.99-24.3 186.79 8Q185.74 10.5 184.44 11.75 183.14 13 180.99 13L180.99 13Q179.29 13 178.36 12.58 177.44 12.15 176.49 10.95L176.49 10.95Q176.79 8.2 179.34 6.55L179.34 6.55Q181.39 8.85 182.84 8.85L182.84 8.85Q184.09 8.85 184.64 7.4ZM226.53-18.6L226.53-18.6 226.53-2.55 230.58-1.8Q230.63-1.55 230.66-1.35 230.68-1.15 230.68-0.9L230.68-0.9Q230.68-0.65 230.66-0.38 230.63-0.1 230.58 0.2L230.58 0.2Q227.43 0.05 224.13 0.05L224.13 0.05Q222.98 0.05 221.36 0.08 219.73 0.1 217.63 0.15L217.63 0.15Q217.48-0.3 217.48-0.8L217.48-0.8Q217.48-1.25 217.63-1.8L217.63-1.8 221.58-2.35Q221.68-3.75 221.73-5.33 221.78-6.9 221.78-8.7L221.78-8.7 221.78-19.35Q221.78-22.65 221.63-24.25L221.63-24.25 217.68-24.75Q217.58-25 217.58-25.6L217.58-25.6Q217.58-25.85 217.58-26.1 217.58-26.35 217.68-26.65L217.68-26.65Q221.08-26.85 226.28-27.7L226.28-27.7Q226.73-27.2 226.78-26.7L226.78-26.7Q226.53-25.3 226.53-18.6ZM219.23-36.45L219.23-36.45Q219.13-36.7 219.13-36.98 219.13-37.25 219.13-37.5L219.13-37.5Q219.13-38.85 220.26-39.68 221.38-40.5 223.03-40.5L223.03-40.5Q224.58-40.5 225.56-39.58 226.53-38.65 226.53-37.05L226.53-37.05Q226.53-35.75 225.41-34.95 224.28-34.15 222.53-34.15L222.53-34.15Q221.33-34.15 220.41-34.75 219.48-35.35 219.23-36.45ZM242.03-18.6L242.03-18.6 242.03-2.55 246.08-1.8Q246.13-1.55 246.15-1.35 246.18-1.15 246.18-0.9L246.18-0.9Q246.18-0.65 246.15-0.38 246.13-0.1 246.08 0.2L246.08 0.2Q242.93 0.05 239.63 0.05L239.63 0.05Q238.48 0.05 236.85 0.08 235.23 0.1 233.13 0.15L233.13 0.15Q232.98-0.3 232.98-0.8L232.98-0.8Q232.98-1.25 233.13-1.8L233.13-1.8 237.08-2.35Q237.18-3.75 237.23-5.33 237.28-6.9 237.28-8.7L237.28-8.7 237.28-19.35Q237.28-22.65 237.13-24.25L237.13-24.25 233.18-24.75Q233.08-25 233.08-25.6L233.08-25.6Q233.08-25.85 233.08-26.1 233.08-26.35 233.18-26.65L233.18-26.65Q236.58-26.85 241.78-27.7L241.78-27.7Q242.23-27.2 242.28-26.7L242.28-26.7Q242.03-25.3 242.03-18.6ZM234.73-36.45L234.73-36.45Q234.63-36.7 234.63-36.98 234.63-37.25 234.63-37.5L234.63-37.5Q234.63-38.85 235.75-39.68 236.88-40.5 238.53-40.5L238.53-40.5Q240.08-40.5 241.05-39.58 242.03-38.65 242.03-37.05L242.03-37.05Q242.03-35.75 240.9-34.95 239.78-34.15 238.03-34.15L238.03-34.15Q236.83-34.15 235.9-34.75 234.98-35.35 234.73-36.45ZM267.63-2.3L257.48-14.4 267.93-24.5 264.63-24.9Q264.43-25.7 264.63-26.85L264.63-26.85Q267.38-26.65 269.78-26.65L269.78-26.65Q271.73-26.65 274.98-26.8L274.98-26.8Q275.28-25.9 274.98-24.9L274.98-24.9 271.03-24.2 262.18-15.9 273.08-2.85 276.98-1.85Q277.18-1.05 276.98 0.15L276.98 0.15Q273.83 0 270.68 0L270.68 0Q268.53 0 264.33 0.1L264.33 0.1Q264.03-0.9 264.33-1.85L264.33-1.85 267.63-2.3ZM256.93-31.7L256.93-31.7 256.93-2.55 260.98-1.8Q261.18-1 260.98 0.2L260.98 0.2Q257.83 0.05 254.58 0.05L254.58 0.05Q252.28 0.05 248.08 0.15L248.08 0.15Q247.78-0.8 248.08-1.8L248.08-1.8 252.03-2.35Q252.23-5.1 252.23-8.7L252.23-8.7 252.23-37.35 248.13-37.85Q247.93-38.6 248.13-39.75L248.13-39.75Q251.48-40 256.68-40.8L256.68-40.8Q257.13-40.3 257.18-39.8L257.18-39.8Q256.93-38.5 256.93-31.7ZM287.67-26.7L287.67-26.7 287.57-21.55Q288.82-23.85 291.05-25.78 293.27-27.7 295.27-27.7L295.27-27.7Q296.82-27.7 298.02-27.35L298.02-27.35Q298.42-26.7 298.42-25.65L298.42-25.65Q298.42-24 297.72-22.35L297.72-22.35Q295.92-22.85 294.27-22.85L294.27-22.85Q290.17-22.85 287.52-18.85L287.52-18.85 287.42-10.1 287.42-2.55 292.97-1.8Q293.17-1 292.97 0.2L292.97 0.2Q289.82 0.05 285.77 0.05L285.77 0.05Q282.72 0.05 278.52 0.15L278.52 0.15Q278.22-0.8 278.52-1.8L278.52-1.8 282.47-2.35Q282.67-5.1 282.67-8.7L282.67-8.7 282.67-22.4Q282.67-23.4 282.52-24.25L282.52-24.25 278.57-24.75Q278.37-25.5 278.57-26.65L278.57-26.65Q282.02-26.9 287.17-27.7L287.17-27.7Q287.62-27.2 287.67-26.7ZM308.62-31.7L308.62-31.7 308.62-2.55 312.67-1.8Q312.87-1 312.67 0.2L312.67 0.2Q309.52 0.05 306.22 0.05L306.22 0.05Q303.92 0.05 299.72 0.15L299.72 0.15Q299.42-0.8 299.72-1.8L299.72-1.8 303.67-2.35Q303.87-5.1 303.87-8.7L303.87-8.7 303.87-37.35 299.77-37.85Q299.57-38.6 299.77-39.75L299.77-39.75Q303.22-40 308.37-40.8L308.37-40.8Q308.82-40.3 308.87-39.8L308.87-39.8Q308.62-38.5 308.62-31.7ZM323.57-31.7L323.57-31.7 323.57-2.55 327.62-1.8Q327.82-1 327.62 0.2L327.62 0.2Q324.47 0.05 321.17 0.05L321.17 0.05Q318.87 0.05 314.67 0.15L314.67 0.15Q314.37-0.8 314.67-1.8L314.67-1.8 318.62-2.35Q318.82-5.1 318.82-8.7L318.82-8.7 318.82-37.35 314.72-37.85Q314.52-38.6 314.72-39.75L314.72-39.75Q318.17-40 323.32-40.8L323.32-40.8Q323.77-40.3 323.82-39.8L323.82-39.8Q323.57-38.5 323.57-31.7ZM358.22-24.85L354.47-24.3 346.12-13.95 354.81-2.65 359.02-1.85Q359.22-1.05 359.02 0.15L359.02 0.15Q355.87 0 352.37 0L352.37 0Q349.87 0 345.67 0.1L345.67 0.1Q345.37-0.9 345.67-1.85L345.67-1.85 349.31-2.4 343.02-10.65 336.42-2.25 339.81-1.85Q340.02-1.05 339.81 0.15L339.81 0.15Q336.67 0 334.67 0L334.67 0Q333.67 0 329.47 0.1L329.47 0.1Q329.17-0.9 329.47-1.85L329.47-1.85 333.22-2.4 341.47-12.65 332.62-24.25 329.56-24.95Q329.37-25.75 329.56-26.9L329.56-26.9Q332.31-26.7 335.67-26.7L335.67-26.7Q338.56-26.7 341.81-26.85L341.81-26.85Q342.12-25.95 341.81-24.95L341.81-24.95 338.22-24.3 344.72-15.8 351.52-24.45 348.12-24.85Q347.92-25.65 348.12-26.85L348.12-26.85Q350.87-26.65 353.12-26.65L353.12-26.65Q354.97-26.65 358.22-26.8L358.22-26.8Q358.52-25.8 358.22-24.85L358.22-24.85Z" opacity="1" transform="matrix(1,0,0,1,0,0)" fill="#000000" class="slogan-text-1" data-fill-palette-color="secondary" id="text-1"></path></svg></g></svg></g></svg></g></svg></g><g></g></svg></g></svg></g></svg></g><defs></defs></svg><rect width="395.52" height="77.60646183497141" fill="none" stroke="none" visibility="hidden"></rect></g></svg></g></svg>